<mxfile host="app.diagrams.net" modified="2023-01-16T14:43:23.205Z" agent="5.0 (Windows NT 10.0; Win64; x64) AppleWebKit/537.36 (KHTML, like Gecko) Chrome/109.0.0.0 Safari/537.36" version="20.8.5" etag="FqVPDZNRLdcGCL_F2Avs" type="github">
  <diagram id="PTM_BjGBD3_p7Czn51Hy" name="Page-1">
    <mxGraphModel dx="632" dy="941" grid="1" gridSize="10" guides="1" tooltips="1" connect="1" arrows="1" fold="1" page="1" pageScale="1" pageWidth="850" pageHeight="1100" math="0" shadow="0">
      <root>
        <mxCell id="0" />
        <mxCell id="1" parent="0" />
        <mxCell id="ojQfYH6CdR8SCjdzi-hn-2" value="" style="rounded=0;whiteSpace=wrap;html=1;" vertex="1" parent="1">
          <mxGeometry x="160" y="80" width="520" height="920" as="geometry" />
        </mxCell>
        <mxCell id="ojQfYH6CdR8SCjdzi-hn-3" value="Actor" style="shape=umlActor;verticalLabelPosition=top;verticalAlign=bottom;html=1;outlineConnect=0;fontFamily=Verdana;fontSize=21;labelPosition=center;align=center;" vertex="1" parent="1">
          <mxGeometry x="80" y="200" width="30" height="60" as="geometry" />
        </mxCell>
      </root>
    </mxGraphModel>
  </diagram>
</mxfile>
